<svg xmlns="http://www.w3.org/2000/svg" viewBox="0 0 900 560">
  <rect width="900" height="560" rx="28" fill="#eef6ff"/>
  <rect x="24" y="24" width="852" height="512" rx="22" fill="#fff" stroke="#d0dfed"/>
  <rect x="24" y="24" width="876" height="62" rx="22" fill="#0d2848"/>
  <circle cx="55" cy="55" r="8" fill="#60b7ff"/>
  <rect x="78" y="48" width="135" height="14" rx="7" fill="#365777"/>
  <rect x="48" y="112" width="180" height="396" rx="14" fill="#f5f9fd" stroke="#dce7f2"/>
  <g fill="#7c91a6">
    <rect x="70" y="142" width="112" height="11" rx="5"/>
    <rect x="70" y="180" width="92" height="10" rx="5"/>
    <rect x="70" y="218" width="120" height="10" rx="5"/>
    <rect x="70" y="256" width="83" height="10" rx="5"/>
    <rect x="70" y="294" width="109" height="10" rx="5"/>
  </g>
  <rect x="252" y="112" width="596" height="116" rx="14" fill="#f9fbfe" stroke="#dce7f2"/>
  <rect x="278" y="138" width="192" height="18" rx="9" fill="#163859"/>
  <rect x="278" y="172" width="425" height="10" rx="5" fill="#8ba0b5"/>
  <rect x="278" y="194" width="330" height="9" rx="4.5" fill="#b1c0cd"/>
  <rect x="252" y="248" width="286" height="238" rx="14" fill="#f9fbfe" stroke="#dce7f2"/>
  <rect x="558" y="248" width="290" height="238" rx="14" fill="#f9fbfe" stroke="#dce7f2"/>
  <rect x="278" y="274" width="124" height="14" rx="7" fill="#0b6fe8"/>
  <rect x="584" y="274" width="148" height="14" rx="7" fill="#0b6fe8"/>
  <g fill="#8ca2b7">
    <rect x="278" y="313" width="220" height="9" rx="4.5"/>
    <rect x="278" y="338" width="184" height="9" rx="4.5"/>
    <rect x="278" y="363" width="230" height="9" rx="4.5"/>
    <rect x="584" y="313" width="220" height="9" rx="4.5"/>
    <rect x="584" y="338" width="180" height="9" rx="4.5"/>
    <rect x="584" y="363" width="236" height="9" rx="4.5"/>
  </g>
  <g fill="#e8f2ff">
    <rect x="278" y="410" width="68" height="24" rx="12"/>
    <rect x="354" y="410" width="84" height="24" rx="12"/>
    <rect x="584" y="410" width="72" height="24" rx="12"/>
    <rect x="664" y="410" width="92" height="24" rx="12"/>
  </g>
</svg>